<svg width="112" height="112" viewBox="0 0 112 112" fill="none" xmlns="http://www.w3.org/2000/svg">
<rect width="112" height="112" rx="56" fill="#DB682A"/>
<path d="M70 44L56 30L42 44" stroke="white" stroke-width="2.66667" stroke-linecap="round" stroke-linejoin="round"/>
<path d="M45.4531 67.8594H39.7695V83H37.4844V67.8594H31.8477V65.8203H45.4531V67.8594ZM55.3555 65.5273C57.7617 65.5273 59.7305 66.3398 61.2617 67.9648C62.793 69.5898 63.5586 71.7383 63.5586 74.4102C63.5586 77.082 62.793 79.2305 61.2617 80.8555C59.7305 82.4805 57.7617 83.293 55.3555 83.293C52.9414 83.293 50.9648 82.4805 49.4258 80.8555C47.8867 79.2227 47.1172 77.0742 47.1172 74.4102C47.1172 71.7383 47.8867 69.5898 49.4258 67.9648C50.9648 66.3398 52.9414 65.5273 55.3555 65.5273ZM55.332 81.3477C57.0508 81.3477 58.457 80.7383 59.5508 79.5195C60.6523 78.3008 61.2031 76.5977 61.2031 74.4102C61.2031 72.2227 60.6562 70.5195 59.5625 69.3008C58.4688 68.082 57.0742 67.4727 55.3789 67.4727C53.6523 67.4727 52.2344 68.082 51.125 69.3008C50.0234 70.5195 49.4727 72.2227 49.4727 74.4102C49.4727 76.5898 50.0234 78.293 51.125 79.5195C52.2266 80.7383 53.6289 81.3477 55.332 81.3477ZM66.5938 65.8203H73.0039C74.4102 65.8203 75.5859 65.9531 76.5312 66.2188C77.4844 66.4766 78.2383 67.043 78.793 67.918C79.3477 68.7852 79.625 69.7578 79.625 70.8359C79.625 72.5703 79.0742 73.8867 77.9727 74.7852C76.8711 75.6836 75.2773 76.1328 73.1914 76.1328H68.8672V83H66.5938V65.8203ZM68.8672 74.0938H73.2148C74.6758 74.0938 75.7148 73.8203 76.332 73.2734C76.957 72.7266 77.2695 71.9375 77.2695 70.9062C77.2695 70.2188 77.0977 69.6094 76.7539 69.0781C76.4102 68.5469 75.9727 68.2109 75.4414 68.0703C74.918 67.9297 74.1602 67.8594 73.168 67.8594H68.8672V74.0938Z" fill="white"/>
</svg>
