<svg width="120" height="120" viewBox="0 0 120 120" fill="none" xmlns="http://www.w3.org/2000/svg">
<path d="M96.7475 50.6254C95.7145 50.6254 94.8721 51.4633 94.8721 52.5008C94.8721 53.5382 95.7101 54.3762 96.7475 54.3762C97.785 54.3762 98.6229 53.5382 98.6229 52.5008C98.6229 51.4633 97.785 50.6254 96.7475 50.6254Z" fill="#EA6002"/>
<path d="M96.7475 58.1267C95.7145 58.1267 94.8721 58.9646 94.8721 60.0021C94.8721 61.0396 95.7101 61.8775 96.7475 61.8775C97.785 61.8775 98.6229 61.0396 98.6229 60.0021C98.6229 58.9646 97.785 58.1267 96.7475 58.1267Z" fill="#EA6002"/>
<path d="M89.2462 50.6254C88.2132 50.6254 87.3708 51.4633 87.3708 52.5008C87.3708 53.5382 88.2088 54.3762 89.2462 54.3762C90.2837 54.3762 91.1216 53.5382 91.1216 52.5008C91.1216 51.4633 90.2837 50.6254 89.2462 50.6254Z" fill="#EA6002"/>
<path d="M89.2462 58.1267C88.2132 58.1267 87.3708 58.9646 87.3708 60.0021C87.3708 61.0396 88.2088 61.8775 89.2462 61.8775C90.2837 61.8775 91.1216 61.0396 91.1216 60.0021C91.1216 58.9646 90.2837 58.1267 89.2462 58.1267Z" fill="#EA6002"/>
<path d="M46.8744 59.9976C45.8414 59.9976 44.999 60.8355 44.999 61.8729C44.999 62.9104 45.837 63.7484 46.8744 63.7484C47.9119 63.7484 48.7498 62.9104 48.7498 61.8729C48.7498 60.8355 47.9119 59.9976 46.8744 59.9976Z" fill="#EA6002"/>
<path d="M35.6264 59.9976C34.5934 59.9976 33.751 60.8355 33.751 61.8729C33.751 62.9104 34.5889 63.7484 35.6264 63.7484C36.6638 63.7484 37.5018 62.9104 37.5018 61.8729C37.5018 60.8355 36.6638 59.9976 35.6264 59.9976Z" fill="#EA6002"/>
<path d="M102.374 24.3741H17.6262C14.5227 24.3741 12 26.8968 12 30.0003V82.4982C12 85.6017 14.5227 88.1244 17.6262 88.1244H21.3415L24.5736 94.5885C24.8928 95.2225 25.5401 95.626 26.2495 95.626H33.7511C34.4604 95.626 35.1122 95.2225 35.427 94.5885L38.659 88.1244H82.4671L85.6992 94.5885C86.0184 95.2225 86.6657 95.626 87.3751 95.626H94.8767C95.586 95.626 96.2378 95.2225 96.5526 94.5885L99.7846 88.1244H102.374C105.477 88.1244 108 85.6017 108 82.4982V30.0003C108 26.8968 105.477 24.3741 102.374 24.3741ZM32.5895 91.8752H27.4066L25.5313 88.1244H34.4649L32.5895 91.8752ZM77.9981 84.3736H17.6262C16.5932 84.3736 15.7508 83.5312 15.7508 82.4982V30.0003C15.7508 28.9673 16.5932 28.1249 17.6262 28.1249H77.9981V84.3736ZM93.7151 91.8752H88.5322L86.6569 88.1244H95.5904L93.7151 91.8752ZM104.249 82.4982C104.249 83.5312 103.407 84.3736 102.374 84.3736H81.7489V28.1249H102.374C103.407 28.1249 104.249 28.9673 104.249 30.0003V82.4982Z" fill="#EA6002"/>
<path d="M98.6229 31.8757H87.375C86.3375 31.8757 85.4995 32.7137 85.4995 33.7511V44.9991C85.4995 46.0365 86.3375 46.8745 87.375 46.8745H98.6229C99.6604 46.8745 100.498 46.0365 100.498 44.9991V33.7511C100.498 32.7137 99.6604 31.8757 98.6229 31.8757ZM96.7475 43.1237H89.2459V35.6221H96.7475V43.1237Z" fill="#EA6002"/>
<path d="M92.9969 65.624C88.856 65.624 85.4954 68.9802 85.4954 73.1256C85.4954 77.271 88.8604 80.6272 92.9969 80.6272C97.1334 80.6272 100.499 77.271 100.499 73.1256C100.499 68.9802 97.1423 65.624 92.9969 65.624ZM92.9969 76.8764C90.9309 76.8764 89.2461 75.1961 89.2461 73.1256C89.2461 71.0551 90.9264 69.3748 92.9969 69.3748C95.0674 69.3748 96.7478 71.0551 96.7478 73.1256C96.7478 75.1961 95.0674 76.8764 92.9969 76.8764Z" fill="#EA6002"/>
<path d="M50.0755 47.4243C49.344 46.6927 48.1558 46.6927 47.4243 47.4243L39.9227 54.9259C39.1911 55.6574 39.1911 56.8456 39.9227 57.5771C40.6542 58.3087 41.8424 58.3087 42.5739 57.5771L50.0755 50.0755C50.8071 49.344 50.8071 48.1558 50.0755 47.4243Z" fill="#EA6002"/>
<path d="M61.3233 47.4243C60.5918 46.6927 59.4036 46.6927 58.6721 47.4243L51.1705 54.9259C50.4389 55.6574 50.4389 56.8456 51.1705 57.5771C51.902 58.3087 53.0902 58.3087 53.8217 57.5771L61.3233 50.0755C62.0549 49.344 62.0549 48.1558 61.3233 47.4243Z" fill="#EA6002"/>
<path d="M67.4994 35.6265H21.9401C20.9027 35.6265 20.0647 36.4644 20.0647 37.5019V75.001C20.0647 76.0384 20.9027 76.8764 21.9401 76.8764H67.4994C68.5369 76.8764 69.3748 76.0384 69.3748 75.001V37.5019C69.3748 36.4644 68.5369 35.6265 67.4994 35.6265ZM65.624 73.1256H23.8111V39.3772H65.624V73.1256Z" fill="#EA6002"/>
</svg>
