<svg width="120" height="120" viewBox="0 0 120 120" fill="none" xmlns="http://www.w3.org/2000/svg">
<path d="M88.7062 34.932C89.1851 34.932 89.664 34.7498 90.0328 34.381C90.766 33.6478 90.766 32.461 90.0328 31.7278H90.0285C89.2953 30.9903 88.1128 30.9945 87.3795 31.7278C86.6463 32.461 86.6505 33.6478 87.3795 34.381C87.744 34.7455 88.2272 34.932 88.7062 34.932Z" fill="#EA6002"/>
<path d="M107.351 85.365C105.842 82.3472 102.155 81.1181 99.1285 82.627C97.4755 83.4535 95.7377 84.2121 93.9364 84.9115L86.6972 70.5051L94.1695 44.9177L100.43 45.5959C103.799 45.9646 106.448 44.6083 107.521 41.9763C108.703 39.0772 107.576 35.3093 104.901 33.2112C104.893 33.2028 104.884 33.1985 104.872 33.19L85.1629 18.3301C83.6837 16.9315 81.6238 16.7323 80.1064 17.8554C79.8521 18.0419 79.6148 18.2411 79.3859 18.4531C74.8169 18.737 71.0998 21.4581 68.0354 26.7476C65.3822 31.3336 63.5215 37.3013 61.7244 43.0698C61.1692 44.8542 60.6351 46.5623 60.0841 48.2152C56.6934 48.2534 53.2264 47.927 50.6876 47.376C48.4115 46.8759 44.8513 46.6004 42.5201 46.5283C39.1591 42.4467 35.2089 40.141 31.318 40.0224C27.7535 39.9122 24.3204 41.6287 21.3959 44.9898C17.3524 49.6309 16.4878 56.086 15.2925 65.0206C15.0043 67.1652 14.7076 69.3819 14.3431 71.802C14.2372 72.5014 14.5338 73.2007 15.1103 73.6119C15.4324 73.8407 15.8138 73.9594 16.1953 73.9594C16.4962 73.9594 16.7972 73.8873 17.0727 73.7432C18.2806 73.1032 19.5055 72.6243 20.6838 72.1623C23.0658 71.2299 25.4986 70.272 27.2152 68.1019C28.3723 70.5559 30.1312 72.7769 32.403 74.5189L26.999 85.2717C24.8586 84.4791 22.8072 83.5976 20.8703 82.6312C17.844 81.1223 14.1566 82.3515 12.6478 85.3692C11.9187 86.8272 11.8001 88.4845 12.3172 90.04C12.8342 91.5955 13.9278 92.8543 15.39 93.5833C25.3121 98.5295 37.7773 101.645 51.4378 102.59C51.4801 102.59 51.5268 102.594 51.5691 102.594C52.544 102.594 53.3705 101.835 53.4383 100.848C53.5104 99.8138 52.7305 98.9194 51.6963 98.8474C38.5233 97.9361 26.5455 94.9565 17.0599 90.2264C16.4962 89.9467 16.0724 89.4551 15.8732 88.8532C15.674 88.2513 15.7164 87.6113 16.0003 87.0476C16.5852 85.8778 18.0178 85.4031 19.1961 85.988C41.6979 97.2071 78.3051 97.2071 100.803 85.988C101.977 85.4031 103.413 85.8778 103.998 87.0476C104.282 87.6113 104.325 88.2513 104.126 88.8532C103.926 89.4551 103.502 89.9425 102.935 90.2222C93.4447 94.9565 81.4627 97.9361 68.2855 98.8432C67.2513 98.9152 66.4714 99.8095 66.5435 100.844C66.6155 101.878 67.5099 102.658 68.544 102.586C82.2087 101.649 94.6824 98.5337 104.609 93.579C106.071 92.85 107.164 91.5955 107.682 90.04C108.199 88.4845 108.084 86.8272 107.351 85.3692V85.365ZM102.608 36.1739C104.121 37.3691 104.537 39.3781 104.053 40.5649C103.519 41.8788 102.011 42.0017 100.841 41.8746L93.0167 41.0269C92.1139 40.9294 91.2704 41.4931 91.0161 42.3662L82.8953 70.1702C82.7639 70.6238 82.8063 71.1154 83.0182 71.5393L90.3804 86.1915C88.045 86.9586 85.6206 87.6241 83.1242 88.1962L76.987 76.7568C75.2068 73.4381 72.8672 72.0224 69.1543 72.0224H63.0468V63.7957C64.6659 63.4439 66.1535 62.6343 67.3573 61.4264C69.006 59.7734 69.913 57.5906 69.9088 55.2764V50.4701C74.0921 48.6476 75.0881 45.2441 76.135 41.6626C76.7878 39.429 77.5252 36.9029 79.1019 34.1013C79.708 33.1731 79.9115 32.8128 80.0513 32.5712C80.1742 32.3551 80.2124 32.283 80.7507 31.571C81.2127 30.9522 81.2508 30.113 80.8397 29.456C79.4071 27.163 79.814 22.7762 82.3189 20.8944L102.604 36.1824L102.608 36.1739ZM53.8367 63.9949H59.3043V72.0182H53.8367V63.9949ZM65.3143 44.1845C68.1498 35.0846 71.0659 25.7304 76.703 22.9797C76.0079 25.4422 76.1605 28.1336 77.0632 30.2698C76.9658 30.4181 76.8895 30.5453 76.7962 30.7063C76.6776 30.914 76.4995 31.2234 75.9316 32.0965C75.9104 32.1304 75.8892 32.1643 75.868 32.1983C74.0582 35.3983 73.2148 38.2846 72.5366 40.603C71.4262 44.3964 70.8667 46.3079 67.5056 47.3591C66.4842 47.6303 65.3355 47.8338 64.1106 47.9736C64.5175 46.7148 64.9159 45.4348 65.3059 44.1803L65.3143 44.1845ZM66.1578 51.4788V55.2764C66.162 56.5904 65.6449 57.8322 64.704 58.7731C63.7546 59.7225 62.5043 60.2439 61.1734 60.2439H51.9591C49.2126 60.2439 46.979 58.0145 46.979 55.2722V50.5972C48.0682 50.7159 49.1024 50.8643 49.895 51.038C54.1546 51.9705 60.864 52.3519 66.1578 51.4746V51.4788ZM19.3275 68.6656C19.0732 68.7631 18.8146 68.8648 18.5519 68.9708C18.7172 67.7883 18.8698 66.6439 19.0223 65.5165C20.1752 56.921 20.9339 51.2415 24.2398 47.4481C26.4353 44.9305 28.7792 43.6928 31.2205 43.7649C33.3482 43.8285 35.5818 44.905 37.7011 46.8462C31.9665 47.9185 27.8043 51.4746 26.2446 56.8277C25.7487 58.5273 25.5664 60.2735 25.6639 61.9986C25.0748 66.4108 22.9005 67.2627 19.3275 68.6614V68.6656ZM36.4889 74.7435C36.7813 74.1628 36.7474 73.472 36.4083 72.9167C36.2473 72.654 36.0226 72.4378 35.7641 72.2852C30.7331 69.1064 28.296 63.1896 29.843 57.8788C31.2502 53.0301 35.4886 50.2582 41.4775 50.2582C41.5156 50.2582 41.558 50.2582 41.6004 50.2582C42.0581 50.2582 42.6176 50.2793 43.2322 50.309V55.2722C43.2322 59.4386 46.1736 62.9268 50.0899 63.7872V72.1538C47.4325 72.5862 45.5972 74.023 44.1307 76.744L37.8748 88.4039C35.3742 87.8614 32.9371 87.2214 30.589 86.4882L36.4931 74.7393L36.4889 74.7435ZM41.7233 89.1584L47.4282 78.5242C48.5514 76.4389 49.6534 75.765 51.9591 75.765H69.1586C71.4685 75.765 72.5705 76.4346 73.6852 78.5199L79.2927 88.9761C67.2132 91.2055 53.8706 91.2691 41.7233 89.1584Z" fill="#EA6002"/>
<path d="M59.9909 99.1229C58.9568 99.1229 58.1176 99.9621 58.1176 100.996C58.1176 102.03 58.9568 102.87 59.9909 102.87H60.0037C61.0378 102.87 61.8728 102.03 61.8728 100.996C61.8728 99.9621 61.0293 99.1229 59.9909 99.1229Z" fill="#EA6002"/>
</svg>
