<svg width="120" height="120" viewBox="0 0 120 120" fill="none" xmlns="http://www.w3.org/2000/svg">
<path d="M103.479 45.4829H109.006C110.105 45.4829 111 44.5919 111 43.4891V35.7827C111 32.0509 107.965 29.0204 104.238 29.0204H15.7624C12.0305 29.0204 9 32.0553 9 35.7827V84.2132C9 87.9451 12.0349 90.9756 15.7624 90.9756H35.476C36.5744 90.9756 37.4698 90.0845 37.4698 88.9817C37.4698 87.8789 36.5788 86.9879 35.476 86.9879H15.7624C14.2317 86.9879 12.9833 85.7395 12.9833 84.2088V35.7783C12.9833 34.2476 14.2317 32.9993 15.7624 32.9993H71.0787V86.9923H53.3722C52.2738 86.9923 51.3783 87.8833 51.3783 88.9861C51.3783 90.0889 52.2694 90.98 53.3722 90.98H104.238C107.97 90.98 111 87.9451 111 84.2176V76.0084C111 74.91 110.109 74.0146 109.006 74.0146H103.479C101.997 74.0146 100.788 72.8059 100.788 71.3193C100.788 69.8327 101.997 68.6285 103.479 68.6285H109.006C110.105 68.6285 111 67.7374 111 66.6346V52.8629C111 51.7645 110.109 50.869 109.006 50.869H103.479C101.997 50.869 100.788 49.6648 100.788 48.1782C100.788 46.6916 101.997 45.4829 103.479 45.4829ZM103.479 54.8523H107.017V64.6408H103.479C99.8 64.6408 96.8048 67.6359 96.8048 71.3149C96.8048 74.9938 99.8 77.9934 103.479 77.9934H107.017V84.2132C107.017 85.7439 105.768 86.9923 104.238 86.9923H75.062V32.9993H104.238C105.768 32.9993 107.017 34.2476 107.017 35.7783V41.4952H103.479C99.8 41.4952 96.8048 44.4904 96.8048 48.1738C96.8048 51.8527 99.8 54.8479 103.479 54.8479V54.8523Z" fill="#EA6002"/>
<path d="M90.8496 57.7505H81.1362C80.0378 57.7505 79.1423 58.6416 79.1423 59.7444C79.1423 60.8472 80.0334 61.7382 81.1362 61.7382H90.8496C91.948 61.7382 92.8435 60.8472 92.8435 59.7444C92.8435 58.6416 91.9524 57.7505 90.8496 57.7505Z" fill="#EA6002"/>
<path d="M90.8496 48.174H81.1362C80.0378 48.174 79.1423 49.065 79.1423 50.1678C79.1423 51.2706 80.0334 52.1617 81.1362 52.1617H90.8496C91.948 52.1617 92.8435 51.2706 92.8435 50.1678C92.8435 49.065 91.9524 48.174 90.8496 48.174Z" fill="#EA6002"/>
<path d="M90.8496 38.5969H81.1362C80.0378 38.5969 79.1423 39.488 79.1423 40.5908C79.1423 41.6936 80.0334 42.5847 81.1362 42.5847H90.8496C91.948 42.5847 92.8435 41.6936 92.8435 40.5908C92.8435 39.488 91.9524 38.5969 90.8496 38.5969Z" fill="#EA6002"/>
<path d="M90.8496 76.9128H81.1362C80.0378 76.9128 79.1423 77.8039 79.1423 78.9067C79.1423 80.0095 80.0334 80.9006 81.1362 80.9006H90.8496C91.948 80.9006 92.8435 80.0095 92.8435 78.9067C92.8435 77.8039 91.9524 76.9128 90.8496 76.9128Z" fill="#EA6002"/>
<path d="M90.8496 67.3363H81.1362C80.0378 67.3363 79.1423 68.2273 79.1423 69.3301C79.1423 70.4329 80.0334 71.324 81.1362 71.324H90.8496C91.948 71.324 92.8435 70.4329 92.8435 69.3301C92.8435 68.2273 91.9524 67.3363 90.8496 67.3363Z" fill="#EA6002"/>
<path d="M66.1735 70.045V39.5901C66.1735 38.4917 65.2824 37.5962 64.1796 37.5962H19.878C18.7796 37.5962 17.8842 38.4873 17.8842 39.5901V70.045C17.8842 71.1433 18.7752 72.0388 19.878 72.0388H64.1796C65.278 72.0388 66.1735 71.1478 66.1735 70.045ZM21.8719 52.2193C22.7232 52.0737 23.5481 51.8355 24.3421 51.5047C25.2553 51.1209 26.239 50.9312 27.2624 50.9312C28.2858 50.9312 29.2739 51.1253 30.1826 51.5047C31.5809 52.0958 33.0851 52.3958 34.6511 52.3958C36.2171 52.3958 37.7169 52.0958 39.1108 51.5091C40.0239 51.1297 41.0076 50.9357 42.031 50.9357C43.0544 50.9357 44.0425 51.1297 44.9512 51.5091C46.3496 52.1002 47.8538 52.4002 49.4198 52.4002C50.9858 52.4002 52.4856 52.1002 53.8795 51.5135C54.7926 51.1298 55.7763 50.9401 56.8041 50.9401C57.8319 50.9401 58.8112 51.1342 59.7155 51.5135C60.5095 51.8488 61.3388 52.087 62.1902 52.2326V58.4612C61.8726 58.3773 61.5638 58.2759 61.2638 58.148C59.8611 57.5569 58.3613 57.2569 56.7997 57.2569C55.2381 57.2569 53.7339 57.5568 52.34 58.1435C51.4269 58.5229 50.4388 58.717 49.4154 58.717C48.392 58.717 47.4039 58.5229 46.4952 58.1435C45.0924 57.5524 43.5926 57.2525 42.0266 57.2525C40.4606 57.2525 38.9652 57.5524 37.5713 58.1391C36.6582 58.5185 35.6701 58.7126 34.6467 58.7126C33.6233 58.7126 32.6352 58.5185 31.7265 58.1391C30.3237 57.548 28.8239 57.2481 27.2579 57.2481C25.692 57.2481 24.1966 57.548 22.8026 58.1347C22.4983 58.2627 22.1851 58.3641 21.8675 58.4523V52.2237L21.8719 52.2193ZM62.1902 41.5795V48.1434C61.8726 48.0596 61.5594 47.9537 61.255 47.8257C59.8522 47.2391 58.3524 46.9435 56.7997 46.9435C55.247 46.9435 53.7427 47.2391 52.3312 47.8302C51.4225 48.2139 50.4432 48.408 49.411 48.408C48.3787 48.408 47.3994 48.2139 46.4863 47.8257C45.0836 47.2391 43.5838 46.9435 42.0266 46.9435C40.4695 46.9435 38.9741 47.2391 37.5625 47.8302C36.6538 48.2139 35.6745 48.408 34.6423 48.408C33.6101 48.408 32.6308 48.2139 31.7177 47.8257C30.3149 47.2391 28.8151 46.9435 27.2579 46.9435C25.7008 46.9435 24.2054 47.2391 22.7938 47.8302C22.4939 47.9581 22.1851 48.0596 21.8675 48.1478V41.5839H62.1858L62.1902 41.5795ZM21.8719 68.0511V62.5194C22.7232 62.3739 23.5481 62.1401 24.3465 61.8048C25.2553 61.421 26.2345 61.227 27.2579 61.227C28.2813 61.227 29.2694 61.4211 30.1826 61.8092C31.5853 62.3959 33.0851 62.6915 34.6423 62.6915C36.1994 62.6915 37.6992 62.3959 39.1108 61.8048C40.0195 61.421 40.9988 61.227 42.0222 61.227C43.0456 61.227 44.0337 61.4211 44.9468 61.8092C46.3496 62.3959 47.8494 62.6915 49.4065 62.6915C50.9637 62.6915 52.4635 62.3959 53.8751 61.8048C54.7838 61.421 55.7631 61.227 56.7953 61.227C57.8275 61.227 58.8024 61.4211 59.7155 61.8092C60.5095 62.1401 61.3344 62.3739 62.1814 62.5194V68.0511H21.8631H21.8719Z" fill="#EA6002"/>
<path d="M66.1735 78.9326C66.1735 77.8342 65.2824 76.9387 64.1796 76.9387H41.0033C39.9049 76.9387 39.0094 77.8298 39.0094 78.9326C39.0094 80.0354 39.9005 80.9265 41.0033 80.9265H64.1796C65.278 80.9265 66.1735 80.0354 66.1735 78.9326Z" fill="#EA6002"/>
<path d="M19.8824 76.9387C18.784 76.9387 17.8885 77.8298 17.8885 78.9326C17.8885 80.0354 18.7796 80.9265 19.8824 80.9265H29.0577C30.1561 80.9265 31.0515 80.0354 31.0515 78.9326C31.0515 77.8298 30.1605 76.9387 29.0577 76.9387H19.8824Z" fill="#EA6002"/>
<path d="M44.4307 86.9919H44.4174C43.319 86.9919 42.4324 87.883 42.4324 88.9858C42.4324 90.0886 43.3279 90.9797 44.4307 90.9797C45.5335 90.9797 46.4245 90.0886 46.4245 88.9858C46.4245 87.883 45.5335 86.9919 44.4307 86.9919Z" fill="#EA6002"/>
</svg>
