<svg width="120" height="120" viewBox="0 0 120 120" fill="none" xmlns="http://www.w3.org/2000/svg">
<path d="M98.6242 19.498H21.3758C16.2047 19.498 12 23.7027 12 28.8738V91.1261C12 96.2972 16.2047 100.502 21.3758 100.502H98.6242C103.795 100.502 108 96.2972 108 91.1261V28.8738C108 23.7027 103.795 19.498 98.6242 19.498ZM42.751 88.1209V96.7465H31.1245V88.1209H42.751ZM46.4979 88.1209H58.1244V96.7465H46.4979V88.1209ZM61.8756 88.1209H73.5021V96.7465H61.8756V88.1209ZM77.249 88.1209H88.8755V96.7465H77.249V88.1209ZM15.7469 84.374V35.6259H104.249V84.374H15.7469ZM77.249 31.8748V23.2492H88.8755V31.8748H77.249ZM73.4978 31.8748H61.8713V23.2492H73.4978V31.8748ZM58.1244 31.8748H46.4979V23.2492H58.1244V31.8748ZM42.751 31.8748H31.1245V23.2492H42.751V31.8748ZM104.249 28.8738V31.8748H92.6224V23.2492H98.6242C101.727 23.2492 104.249 25.7712 104.249 28.8738ZM21.3758 23.2492H27.3776V31.8748H15.7512V28.8738C15.7512 25.7712 18.2731 23.2492 21.3758 23.2492ZM15.7469 91.1219V88.1209H27.3734V96.7465H21.3715C18.2689 96.7465 15.7469 94.2245 15.7469 91.1219ZM98.6242 96.7465H92.6224V88.1209H104.249V91.1219C104.249 94.2245 101.727 96.7465 98.6242 96.7465Z" fill="#EA6002"/>
<path d="M55.2211 69.4287C55.912 69.8059 56.6749 69.9966 57.4336 69.9966C58.3025 69.9966 59.1672 69.7508 59.9217 69.2676L68.3226 63.8846C69.6535 63.0326 70.4461 61.5788 70.4461 60.002C70.4461 58.4253 69.6535 56.9714 68.3226 56.1195L59.9217 50.7364C58.5017 49.8251 56.7004 49.7616 55.2211 50.5711C53.7418 51.3807 52.822 52.932 52.822 54.619V65.3893C52.822 67.0762 53.7418 68.6276 55.2211 69.4371V69.4287ZM56.5732 54.6148C56.5732 54.1697 56.8529 53.9493 57.0225 53.8561C57.1157 53.8052 57.2641 53.7458 57.4421 53.7458C57.582 53.7458 57.7388 53.784 57.9041 53.8857L66.305 59.2687C66.6526 59.4891 66.7034 59.8198 66.7034 59.9935C66.7034 60.1673 66.6526 60.4979 66.305 60.7183L57.9041 66.1014C57.5311 66.343 57.192 66.2243 57.0267 66.131C56.8572 66.0378 56.5774 65.8174 56.5774 65.3723V54.602L56.5732 54.6148Z" fill="#EA6002"/>
<path d="M54.3521 41.5261C53.3603 41.8271 52.805 42.874 53.106 43.8658C53.4069 44.8577 54.4581 45.4172 55.4457 45.112C60.9643 43.4293 66.928 44.917 71.0013 48.9945C73.9387 51.9319 75.5578 55.8441 75.5578 59.9979C75.5578 64.1518 73.9387 68.064 71.0013 71.0013C68.064 73.9387 64.156 75.5578 59.9979 75.5578C55.8399 75.5578 51.9319 73.9387 48.9945 71.0013C44.917 66.9238 43.4292 60.9643 45.112 55.4457C45.4129 54.4539 44.8577 53.4069 43.8658 53.106C42.874 52.805 41.8271 53.3603 41.5261 54.3521C39.4407 61.2017 41.2845 68.5938 46.3412 73.6547C49.9906 77.3041 54.8395 79.3132 59.9979 79.3132C65.1563 79.3132 70.0053 77.3041 73.6547 73.6547C77.3041 70.0053 79.3132 65.1563 79.3132 59.9979C79.3132 54.8396 77.3041 49.9906 73.6547 46.3412C68.598 41.2845 61.2017 39.4365 54.3521 41.5261Z" fill="#EA6002"/>
<path d="M47.668 49.541C48.1597 49.541 48.6429 49.3418 48.9947 48.99C49.3422 48.6425 49.5457 48.1593 49.5457 47.6633C49.5457 47.1674 49.3465 46.6885 48.9947 46.3367C48.6471 45.9891 48.1639 45.7856 47.668 45.7856C47.1721 45.7856 46.6889 45.9849 46.3413 46.3367C45.9937 46.6842 45.7903 47.1674 45.7903 47.6633C45.7903 48.1593 45.9895 48.6382 46.3413 48.99C46.6889 49.3376 47.1721 49.541 47.668 49.541Z" fill="#EA6002"/>
</svg>
