<svg width="120" height="120" viewBox="0 0 120 120" fill="none" xmlns="http://www.w3.org/2000/svg">
<path d="M102 79.5212C102 74.2724 99.3232 69.6404 95.2615 66.921V57.7307C95.2615 49.2776 92.224 41.1232 86.7036 34.7144C86.5601 33.8028 86.1062 32.9532 85.4235 32.3286C78.4445 25.9471 69.4017 22.4285 59.9593 22.4285C50.5169 22.4285 41.4741 25.9432 34.4951 32.3286C33.8084 32.9571 33.3584 33.8067 33.2149 34.7144C27.6945 41.1232 24.657 49.2737 24.657 57.7307V66.9559C24.657 66.9559 24.657 66.9675 24.657 66.9753C20.6419 69.7025 18 74.3073 18 79.5212C18 87.6484 24.4242 94.3015 32.4545 94.6584C33.5602 96.4042 35.5076 97.568 37.7266 97.568C40.2715 97.568 42.4594 96.0356 43.4293 93.8477C47.4289 93.3046 50.5247 89.8674 50.5247 85.7204V73.3181C50.5247 69.171 47.4328 65.7339 43.4293 65.1908C42.4594 63.0028 40.2715 61.4704 37.7266 61.4704C36.6753 61.4704 35.686 61.7342 34.8171 62.192V57.7269C34.8171 52.4781 36.396 47.5125 39.3986 43.2723C40.9426 44.6573 43.3012 44.6767 44.8646 43.2801C47.2854 41.1193 50.0746 39.5287 53.1548 38.555C54.0199 38.2835 54.4971 37.3602 54.2256 36.4951C53.954 35.63 53.0307 35.1528 52.1656 35.4244C48.6393 36.5377 45.4465 38.3572 42.6767 40.8322C42.3508 41.1231 41.8582 41.1076 41.5517 40.8012L36.6831 35.9326C36.524 35.7735 36.4387 35.5563 36.4425 35.3351C36.4464 35.114 36.5434 34.8968 36.7102 34.7493C43.084 28.9187 51.3393 25.7104 59.9593 25.7104C68.5792 25.7104 76.8346 28.9225 83.2084 34.7493C83.3713 34.9006 83.4683 35.114 83.476 35.3351C83.4799 35.5563 83.3945 35.7774 83.2355 35.9326L78.3669 40.8012C78.2117 40.9564 78.0061 41.0417 77.785 41.0417C77.6414 41.0417 77.432 41.0068 77.238 40.8322C74.4681 38.3572 71.2754 36.5377 67.749 35.4244C66.8839 35.1528 65.9645 35.63 65.6891 36.4951C65.4176 37.3602 65.8947 38.2796 66.7598 38.555C69.84 39.5287 72.6293 41.1154 75.05 43.2801C75.8026 43.9512 76.7724 44.3236 77.7811 44.3236C78.7897 44.3236 79.7635 43.9551 80.516 43.2801C83.4799 47.4931 85.0976 52.5634 85.0976 57.7307V62.1571C84.248 61.7226 83.2859 61.4743 82.2695 61.4743C79.7247 61.4743 77.5367 63.0067 76.5668 65.1947C72.5672 65.7378 69.4715 69.1749 69.4715 73.3219V85.7243C69.4715 89.8713 72.5633 93.3084 76.5668 93.8516C77.5367 96.0395 79.7285 97.5719 82.2695 97.5719C84.4846 97.5719 86.4321 96.4081 87.5416 94.6623C95.5719 94.3054 101.996 87.6523 101.996 79.525L102 79.5212ZM21.2858 79.5212C21.2858 73.5353 25.7355 68.5697 31.4963 67.7667V91.2757C25.7355 90.4726 21.2858 85.5109 21.2858 79.5212ZM47.2427 73.3219V85.7243C47.2427 87.8618 45.8694 89.689 43.9608 90.364V68.6822C45.8694 69.3611 47.2427 71.1844 47.2427 73.3219ZM37.7266 64.7563C39.3559 64.7563 40.6788 66.083 40.6788 67.7085V91.3338C40.6788 92.9632 39.352 94.286 37.7266 94.286C36.1011 94.286 34.7744 92.9632 34.7744 91.3338V67.7085C34.7744 66.0791 36.0972 64.7563 37.7266 64.7563ZM37.0439 40.9331C33.4865 45.7862 31.5351 51.7022 31.5351 57.7307V64.4537C30.286 64.5856 29.0795 64.8688 27.9389 65.2878V57.7307C27.9389 50.7129 30.2472 43.9241 34.4757 38.3688L37.0439 40.9369V40.9331ZM82.8786 40.9331L85.4467 38.3649C89.6752 43.9202 91.9835 50.7091 91.9835 57.7307V65.2606C90.843 64.8494 89.6365 64.5701 88.3873 64.4459V57.7307C88.3873 51.6983 86.4398 45.7862 82.8786 40.9331ZM72.7612 85.7204V73.3181C72.7612 71.1805 74.1345 69.3533 76.0431 68.6783V90.3601C74.1345 89.6812 72.7612 87.8579 72.7612 85.7204ZM82.2773 94.286C80.648 94.286 79.3251 92.9632 79.3251 91.3338V67.7085C79.3251 66.0791 80.6518 64.7563 82.2773 64.7563C83.9028 64.7563 85.2295 66.0791 85.2295 67.7085V91.3338C85.2295 92.9632 83.9066 94.286 82.2773 94.286ZM88.5114 91.2757V67.7667C94.2723 68.5697 98.722 73.5314 98.722 79.5212C98.722 85.5109 94.2723 90.4726 88.5114 91.2757Z" fill="#EA6002"/>
<path d="M59.9593 34.2295C60.8671 34.2295 61.6003 34.9627 61.6003 35.8705C61.6003 36.7782 60.8671 37.5114 59.9593 37.5114C59.0516 37.5114 58.3184 36.7782 58.3184 35.8705C58.3184 34.9627 59.0516 34.2295 59.9593 34.2295Z" fill="#EA6002"/>
</svg>
