<svg width="120" height="120" viewBox="0 0 120 120" fill="none" xmlns="http://www.w3.org/2000/svg">
<path d="M106.955 85.7192L105.402 81.5341C105.042 80.5615 103.964 80.0684 102.991 80.4279C102.019 80.7874 101.526 81.866 101.885 82.8385L103.438 87.0236C104.918 91.0013 104.374 95.2833 101.954 98.7678C99.5301 102.252 95.7093 104.253 91.4646 104.253C87.0032 104.253 82.9382 101.985 80.5923 98.1871L78.6935 95.1127C79.3802 93.942 79.7812 92.5823 79.7812 91.1304C79.7812 86.7886 76.2508 83.2533 71.9046 83.2533C68.2084 83.2533 65.102 85.8114 64.2586 89.2545H55.7599C54.9164 85.816 51.8101 83.2533 48.1138 83.2533C43.7723 83.2533 40.2373 86.7839 40.2373 91.1304C40.2373 92.5823 40.6336 93.942 41.325 95.1127L39.4261 98.1871C37.0802 101.985 33.0198 104.253 28.5539 104.253C24.0879 104.253 20.4884 102.252 18.0641 98.7678C15.6399 95.2833 15.1006 91.0013 16.5801 87.0236L25.5673 62.8346C27.8625 56.6537 33.8356 52.5009 40.4308 52.5009H79.5876C86.1828 52.5009 92.1559 56.6537 94.4511 62.8346L96.0043 67.0198C96.3638 67.9923 97.4422 68.4855 98.4147 68.126C99.3872 67.7665 99.8803 66.6879 99.5208 65.7154L97.9677 61.5302C95.1286 53.8882 87.7406 48.7536 79.5876 48.7536H75.2184C74.3289 43.6466 69.8675 39.7519 64.5074 39.7519H61.8804V38.3461C61.8804 32.8151 57.3822 28.3165 51.8516 28.3165H32.1672C28.7059 28.3165 25.8853 25.5003 25.8853 22.0342C25.8853 18.5681 28.7013 15.7519 32.1672 15.7519H60.0323C61.0692 15.7519 61.9081 14.913 61.9081 13.8759C61.9081 12.8389 61.0692 12 60.0323 12H32.1672C26.6366 12 22.1383 16.4986 22.1383 22.0296C22.1383 27.5606 26.6366 32.0591 32.1672 32.0591H51.8516C55.3128 32.0591 58.1334 34.8754 58.1334 38.3415V39.7473H55.5064C50.1509 39.7473 45.6895 43.642 44.7954 48.749H40.4262C32.2732 48.749 24.8852 53.8836 22.0462 61.5256L13.0589 85.7146C11.1463 90.8585 11.8468 96.3987 14.9808 100.906C18.1148 105.414 23.0601 108 28.5492 108C34.3241 108 39.5782 105.069 42.6108 100.155L44.0257 97.8598C45.2148 98.5835 46.6113 99.0029 48.1046 99.0029C51.8009 99.0029 54.9072 96.4448 55.7506 93.0017H64.2494C65.0928 96.4402 68.1991 99.0029 71.8954 99.0029C73.3887 99.0029 74.7852 98.5835 75.9743 97.8598L77.3892 100.155C80.4218 105.069 85.6805 108 91.4508 108C97.221 108 101.885 105.414 105.019 100.906C108.153 96.3987 108.854 90.8631 106.941 85.7146L106.955 85.7192ZM55.511 43.5037H64.5121C67.7936 43.5037 70.5589 45.73 71.3838 48.7536H48.6346C49.4596 45.73 52.2295 43.5037 55.511 43.5037ZM48.1138 95.2556C45.8416 95.2556 43.9889 93.4073 43.9889 91.1304C43.9889 88.8535 45.837 87.0052 48.1138 87.0052C50.3906 87.0052 52.2387 88.8535 52.2387 91.1304C52.2387 93.4073 50.3906 95.2556 48.1138 95.2556ZM67.7797 91.1304C67.7797 88.8581 69.6279 87.0052 71.9046 87.0052C74.1814 87.0052 76.0296 88.8535 76.0296 91.1304C76.0296 93.4073 74.1814 95.2556 71.9046 95.2556C69.6279 95.2556 67.7797 93.4073 67.7797 91.1304Z" fill="#EA6002"/>
<path d="M77.4166 69.5364C77.4166 72.8458 80.1082 75.5376 83.4173 75.5376C86.7265 75.5376 89.4181 72.8458 89.4181 69.5364C89.4181 66.227 86.7265 63.5353 83.4173 63.5353C80.1082 63.5353 77.4166 66.227 77.4166 69.5364ZM85.6665 69.5364C85.6665 70.7763 84.6571 71.7857 83.4173 71.7857C82.1776 71.7857 81.1682 70.7763 81.1682 69.5364C81.1682 68.2966 82.1776 67.2871 83.4173 67.2871C84.6571 67.2871 85.6665 68.2966 85.6665 69.5364Z" fill="#EA6002"/>
<path d="M60.9174 69.5364C60.9174 72.8458 63.6089 75.5376 66.9181 75.5376C70.2272 75.5376 72.9188 72.8458 72.9188 69.5364C72.9188 66.227 70.2272 63.5353 66.9181 63.5353C63.6089 63.5353 60.9174 66.227 60.9174 69.5364ZM69.1672 69.5364C69.1672 70.7763 68.1579 71.7857 66.9181 71.7857C65.6783 71.7857 64.669 70.7763 64.669 69.5364C64.669 68.2966 65.6783 67.2871 66.9181 67.2871C68.1579 67.2871 69.1672 68.2966 69.1672 69.5364Z" fill="#EA6002"/>
<path d="M41.4772 58.6593C38.4999 58.6593 36.0526 60.9869 35.8636 63.923C32.9324 64.112 30.6003 66.5548 30.6003 69.537C30.6003 72.5191 32.9278 74.962 35.8636 75.151C36.0526 78.0824 38.4953 80.4146 41.4772 80.4146C44.4591 80.4146 46.9018 78.087 47.0908 75.151C50.022 74.962 52.3541 72.5191 52.3541 69.537C52.3541 66.5548 50.0266 64.112 47.0908 63.923C46.9018 60.9915 44.4591 58.6593 41.4772 58.6593ZM48.6025 69.537C48.6025 70.5694 47.7637 71.4129 46.7267 71.4129H45.2288C44.1918 71.4129 43.353 72.2518 43.353 73.2888V74.7868C43.353 75.8193 42.5142 76.6628 41.4772 76.6628C40.4402 76.6628 39.6014 75.8239 39.6014 74.7868V73.2888C39.6014 72.2518 38.7626 71.4129 37.7256 71.4129H36.2277C35.1954 71.4129 34.3519 70.574 34.3519 69.537C34.3519 68.4999 35.1907 67.661 36.2277 67.661H37.7256C38.7626 67.661 39.6014 66.8222 39.6014 65.7851V64.2871C39.6014 63.2547 40.4402 62.4112 41.4772 62.4112C42.5142 62.4112 43.353 63.25 43.353 64.2871V65.7851C43.353 66.8222 44.1918 67.661 45.2288 67.661H46.7267C47.7591 67.661 48.6025 68.4999 48.6025 69.537Z" fill="#EA6002"/>
<path d="M98.8296 74.2791C98.8296 74.7723 99.0324 75.2563 99.378 75.6066C99.7283 75.9569 100.208 76.1551 100.705 76.1551C101.203 76.1551 101.682 75.9523 102.033 75.6066C102.383 75.2563 102.581 74.7723 102.581 74.2791C102.581 73.786 102.378 73.302 102.033 72.9517C101.682 72.6014 101.199 72.4032 100.705 72.4032C100.212 72.4032 99.7283 72.606 99.378 72.9517C99.0278 73.302 98.8296 73.786 98.8296 74.2791Z" fill="#EA6002"/>
</svg>
