<svg width="120" height="120" viewBox="0 0 120 120" fill="none" xmlns="http://www.w3.org/2000/svg">
<path d="M99.5609 19.5044H38.9494C37.9297 19.5044 37.1068 20.3317 37.1068 21.3469C37.1068 22.3621 37.9342 23.1894 38.9494 23.1894H99.5609C102.182 23.1894 104.315 25.3227 104.315 27.9389V92.0567C104.315 94.6774 102.182 96.8106 99.5609 96.8106H83.6399C82.6203 96.8106 81.7974 97.6379 81.7974 98.6531C81.7974 99.6683 82.6247 100.496 83.6399 100.496H99.5609C104.216 100.496 108 96.7077 108 92.0567V27.9389C108 23.2833 104.212 19.4999 99.5609 19.4999V19.5044Z" fill="#EA6002"/>
<path d="M76.2609 96.8105H20.439C18.8067 96.8105 17.3622 95.9832 16.508 94.7265L75.2144 71.7529C76.0194 71.4398 76.5471 70.6616 76.5471 69.7985V50.2058C76.5471 49.3427 76.0194 48.569 75.2144 48.2515L16.508 25.2779C17.3622 24.0212 18.8067 23.1894 20.439 23.1894H31.5703C32.59 23.1894 33.4128 22.362 33.4128 21.3468C33.4128 20.3316 32.5855 19.5043 31.5703 19.5043H20.439C15.7835 19.5043 12 23.2922 12 27.9433V92.0611C12 96.7166 15.7879 100.5 20.439 100.5H76.2609C77.2805 100.5 78.1034 99.6727 78.1034 98.6575C78.1034 97.6423 77.2761 96.815 76.2609 96.815V96.8105ZM15.6896 29.4594L72.3567 51.6369V68.3674L15.6896 90.5405V29.4594Z" fill="#EA6002"/>
<path d="M25.4121 57.3925C24.6429 57.3925 23.8871 57.7234 23.1492 58.3808H23.0777V58.354C23.024 58.1125 22.9032 57.9247 22.7154 57.7905C22.5321 57.6563 22.304 57.5892 22.0356 57.5892C21.6823 57.5892 21.4006 57.6787 21.1815 57.8531C20.9623 58.0275 20.855 58.2824 20.855 58.6178V67.3833C20.855 68.2152 21.2754 68.6355 22.1206 68.6355C22.9659 68.6355 23.3728 68.2196 23.3728 67.3833V66.3145L23.3013 65.0488C23.8558 65.6034 24.4819 65.8807 25.1751 65.8807C26.1009 65.8807 26.9014 65.4871 27.5722 64.6911C28.243 63.8995 28.5784 62.8351 28.5784 61.5024C28.5784 60.2502 28.2922 59.2529 27.7153 58.5105C27.1429 57.7636 26.3737 57.3925 25.4077 57.3925H25.4121ZM25.5866 63.2555C25.3316 63.6267 24.9962 63.8101 24.5803 63.8101C24.1242 63.8101 23.7217 63.6535 23.3728 63.336V60.1429C23.8066 59.6822 24.2404 59.4497 24.6653 59.4497C25.5374 59.4497 25.9712 60.1473 25.9712 61.5471C25.9712 62.3164 25.8459 62.8843 25.591 63.2555H25.5866Z" fill="#EA6002"/>
<path d="M33.7214 57.3925C32.572 57.3925 31.6239 57.795 30.8726 58.6C30.1213 59.4049 29.7456 60.4201 29.7456 61.641C29.7456 62.929 30.1392 63.9576 30.9173 64.7269C31.7 65.4961 32.6346 65.8807 33.7169 65.8807C34.7992 65.8807 35.716 65.4961 36.4941 64.7269C37.2723 63.9576 37.6614 62.929 37.6614 61.641C37.6614 60.353 37.2723 59.3245 36.4941 58.5508C35.716 57.7771 34.7902 57.3925 33.7169 57.3925H33.7214ZM33.7214 63.8414C32.7956 63.8414 32.3305 63.1079 32.3305 61.6455C32.3305 60.1831 32.7912 59.4362 33.7214 59.4362C34.6516 59.4362 35.0809 60.1742 35.0809 61.6455C35.0809 63.1169 34.6292 63.8414 33.7214 63.8414Z" fill="#EA6002"/>
<path d="M40.5281 57.5895C39.6873 57.5895 39.2625 58.0054 39.2625 58.8417V64.4409C39.2625 65.2727 39.6828 65.6931 40.5281 65.6931C41.3733 65.6931 41.7803 65.2772 41.7803 64.4409V58.8417C41.7803 58.0099 41.3644 57.5895 40.5281 57.5895Z" fill="#EA6002"/>
<path d="M40.5281 53.8641C40.1033 53.8641 39.7544 53.9849 39.4816 54.2308C39.2088 54.4768 39.0702 54.7899 39.0702 55.17C39.0702 55.5501 39.2088 55.8587 39.4816 56.1002C39.7544 56.3417 40.1033 56.4625 40.5281 56.4625C40.953 56.4625 41.2884 56.3417 41.5567 56.1002C41.8251 55.8587 41.9592 55.5501 41.9592 55.17C41.9592 54.772 41.8251 54.4545 41.5567 54.2174C41.2884 53.9804 40.944 53.8641 40.5281 53.8641Z" fill="#EA6002"/>
<path d="M48.6942 57.3927C47.7953 57.3927 46.9367 57.7952 46.1093 58.6002H46.0377C45.9528 57.9249 45.5816 57.585 44.9107 57.585C44.5664 57.585 44.2981 57.6744 44.1058 57.8488C43.909 58.0232 43.8151 58.2782 43.8151 58.6136V64.4319C43.8151 65.2637 44.2355 65.6841 45.0807 65.6841C45.9259 65.6841 46.3329 65.2682 46.3329 64.4319V60.2772C46.6102 60.0178 46.8472 59.8345 47.0395 59.7227C47.2318 59.6109 47.4644 59.5572 47.7327 59.5572C48.0636 59.5572 48.3051 59.6601 48.4572 59.8703C48.6048 60.0805 48.6808 60.4517 48.6808 60.9883V64.4185C48.6808 65.2592 49.1012 65.6841 49.9464 65.6841C50.7917 65.6841 51.2121 65.2637 51.2121 64.4185V60.6797C51.2121 58.4839 50.3758 57.3882 48.6987 57.3882L48.6942 57.3927Z" fill="#EA6002"/>
<path d="M57.661 64.0341C57.5 63.9044 57.3032 63.8641 57.0707 63.9088H57.0439C56.3686 63.9088 56.0287 63.4929 56.0287 62.6566V59.5708H56.9455C57.6029 59.5708 57.9338 59.2354 57.9338 58.569C57.9338 57.9027 57.6029 57.5807 56.9455 57.5807H56.0287V56.5119C56.0287 55.8097 55.6619 55.4564 54.933 55.4564C54.2577 55.4564 53.8775 55.7739 53.7926 56.4L53.6405 57.5807L53.2783 57.6075C52.6835 57.6523 52.3883 57.9832 52.3883 58.5959C52.3883 59.2443 52.7014 59.5664 53.3319 59.5664H53.484V62.679C53.484 63.6808 53.7165 64.4634 54.1861 65.0269C54.6512 65.5904 55.3757 65.8766 56.3462 65.8766C56.7442 65.8766 57.1154 65.8408 57.4553 65.7648C57.9472 65.6441 58.1172 65.2505 57.9696 64.5841C57.9249 64.3426 57.8175 64.1593 57.6565 64.0296L57.661 64.0341Z" fill="#EA6002"/>
<path d="M64.5706 61.6187C64.347 61.4353 64.1278 61.2788 63.9087 61.1625C63.6895 61.0418 63.4346 60.9255 63.1395 60.8137C63.0545 60.7869 62.9382 60.7466 62.7906 60.6974C62.6431 60.6482 62.5312 60.6035 62.4552 60.5722C62.3792 60.5409 62.2853 60.5006 62.169 60.4514C62.0527 60.4067 61.9633 60.362 61.9051 60.3262C61.847 60.2904 61.7844 60.2457 61.7263 60.1965C61.6681 60.1473 61.6234 60.0892 61.5966 60.0311C61.5697 59.9729 61.5563 59.9058 61.5563 59.8432C61.5563 59.4542 61.8425 59.2574 62.4194 59.2574C62.6699 59.2574 62.9382 59.32 63.2244 59.4362C63.7879 59.7717 64.262 59.6912 64.6421 59.1992C64.8478 58.9488 64.9418 58.7252 64.9283 58.5239C64.9149 58.3272 64.7763 58.1393 64.5169 57.9604C63.8416 57.5803 63.1126 57.3925 62.3345 57.3925C61.3998 57.3925 60.644 57.6295 60.0626 58.0991C59.4857 58.5731 59.195 59.1903 59.195 59.9595C59.195 60.9791 59.8971 61.7707 61.3059 62.3342C61.3908 62.37 61.5026 62.4192 61.6547 62.4729C61.8023 62.531 61.9141 62.5713 61.9946 62.607C62.0751 62.6383 62.169 62.6831 62.2853 62.7323C62.4016 62.7814 62.491 62.8306 62.5491 62.8709C62.6073 62.9111 62.6699 62.9603 62.737 63.0185C62.7996 63.0766 62.8488 63.1303 62.8756 63.1929C62.9024 63.251 62.9159 63.3181 62.9159 63.3807C62.9159 63.8056 62.5983 64.0202 61.9588 64.0202C61.6055 64.0202 61.2433 63.9353 60.8631 63.7698C60.5858 63.5864 60.3086 63.5104 60.0313 63.5417C59.754 63.573 59.517 63.7251 59.3247 63.9934C58.9714 64.4854 59.0474 64.9057 59.5483 65.259C60.3265 65.675 61.1136 65.8851 61.9096 65.8851C62.9024 65.8851 63.7074 65.6571 64.3335 65.1964C64.9596 64.7403 65.2727 64.0873 65.2727 63.2466C65.2727 62.9022 65.2146 62.5936 65.0938 62.3163C64.9731 62.0391 64.8031 61.8065 64.5795 61.6232L64.5706 61.6187Z" fill="#EA6002"/>
</svg>
