<svg width="120" height="120" viewBox="0 0 120 120" fill="none" xmlns="http://www.w3.org/2000/svg">
<path d="M94.0502 43.7153H84.5956C86.3057 40.6157 86.8089 37.1306 85.9688 33.7568C84.5914 28.2371 79.9089 22.842 73.7509 21.2843C70.3009 20.414 66.6632 20.5094 63.1791 21.5625C59.6992 20.5134 56.0573 20.414 52.6073 21.2843C46.445 22.842 41.7625 28.2371 40.3893 33.7568C39.5492 37.1306 40.0524 40.6157 41.7625 43.7153H32.308C29.792 43.7153 27.7407 45.6227 27.7407 47.9673V63.974C27.7407 65.647 28.7813 67.0974 30.2952 67.7929V99.6632C30.2952 102.608 32.8624 105 36.0224 105H90.3357C93.4957 105 96.063 102.608 96.063 99.6632V67.7929C97.5727 67.0974 98.6175 65.647 98.6175 63.974V47.9673C98.6175 45.6227 96.5705 43.7153 94.0544 43.7153H94.0502ZM31.7664 63.974V47.9673C31.7664 47.6931 32.0138 47.4626 32.308 47.4626H50.0272V64.4747H32.308C32.0138 64.4747 31.7664 64.2442 31.7664 63.97V63.974ZM52.3471 101.249H36.0224C35.0842 101.249 34.3209 100.537 34.3209 99.6632V68.23H39.208V82.52C39.208 83.5571 40.1079 84.3956 41.221 84.3956C42.334 84.3956 43.2338 83.5571 43.2338 82.52V68.23H52.3471V101.249ZM70.2199 101.249H56.3729V68.23H70.2199V101.249ZM72.3095 64.4787H54.053V47.4666H65.5374C65.5374 47.4666 65.5374 47.4666 65.5416 47.4666C65.5416 47.4666 65.5459 47.4666 65.5502 47.4666H72.3137V64.4787H72.3095ZM65.0384 43.7153H61.3198C57.0168 41.5932 54.9272 40.2342 53.6777 38.7678C52.1126 36.9319 53.5029 34.4218 53.9634 34.0006C55.601 32.5223 58.7781 32.0415 61.8827 34.4854C62.6332 35.0775 63.7292 35.0775 64.4798 34.4854C67.5844 32.0415 70.7615 32.5223 72.3991 34.0006C72.8639 34.4179 74.2541 36.9279 72.6847 38.7678C71.4352 40.2342 69.3414 41.5932 65.0427 43.7153H65.0384ZM75.8363 41.1005C78.2031 38.3267 77.9472 33.794 75.2008 31.3103C72.4801 28.8505 67.6441 28.0001 63.1834 30.7182C58.7184 28.0001 53.8866 28.8505 51.1659 31.3103C48.4195 33.794 48.1636 38.3267 50.5304 41.1005C51.3322 42.0423 52.3216 42.8887 53.5242 43.7153H46.5005C44.3341 41.0091 43.5366 37.7306 44.317 34.6072C45.3576 30.4347 48.9398 26.1006 53.6691 24.9084C56.5392 24.1852 59.5926 24.3243 62.4968 25.3098C62.9446 25.4608 63.4307 25.4608 63.8785 25.3098C66.7827 24.3203 69.836 24.1812 72.7061 24.9084C77.4355 26.1006 81.0177 30.4347 82.0583 34.6072C82.8387 37.7346 82.0412 41.0091 79.8748 43.7153H72.8511C74.0494 42.8887 75.0388 42.0423 75.8448 41.1005H75.8363ZM92.0373 99.6632C92.0373 100.537 91.2739 101.249 90.3357 101.249H87.1501V86.9587C87.1501 85.9216 86.2503 85.0831 85.1373 85.0831C84.0242 85.0831 83.1244 85.9216 83.1244 86.9587V101.249H74.2413V68.23H92.0373V99.6632ZM94.5917 63.974C94.5917 64.2482 94.3444 64.4787 94.0502 64.4787H76.331V47.4626H94.0502C94.3444 47.4626 94.5917 47.6931 94.5917 47.9673V63.974Z" fill="#EA6002"/>
<path d="M77.6104 18.6086C82.9624 20.6154 87.18 24.331 89.4914 29.0718C89.8283 29.7632 90.5618 30.1725 91.3252 30.1725C91.6023 30.1725 91.8881 30.1169 92.1567 30.0056C93.1674 29.5765 93.6152 28.4638 93.1546 27.522C90.4125 21.899 85.423 17.4999 79.1115 15.1355C78.0795 14.75 76.9067 15.215 76.493 16.1766C76.0794 17.1383 76.5783 18.2311 77.6104 18.6166V18.6086Z" fill="#EA6002"/>
<path d="M41.2212 86.5375C40.1081 86.5375 39.2083 87.376 39.2083 88.4131V88.5244C39.2083 89.5616 40.1081 90.4001 41.2212 90.4001C42.3342 90.4001 43.234 89.5616 43.234 88.5244V88.4131C43.234 87.376 42.3342 86.5375 41.2212 86.5375Z" fill="#EA6002"/>
<path d="M85.1374 82.937C86.2504 82.937 87.1502 82.0986 87.1502 81.0614V80.9501C87.1502 79.9129 86.2504 79.0745 85.1374 79.0745C84.0243 79.0745 83.1245 79.9129 83.1245 80.9501V81.0614C83.1245 82.0986 84.0243 82.937 85.1374 82.937Z" fill="#EA6002"/>
<path d="M23.3952 79.0745C22.2821 79.0745 21.3823 79.9129 21.3823 80.9501V97.1158C21.3823 98.1529 22.2821 98.9914 23.3952 98.9914C24.5082 98.9914 25.408 98.1529 25.408 97.1158V80.9501C25.408 79.9129 24.5082 79.0745 23.3952 79.0745Z" fill="#EA6002"/>
</svg>
