<svg width="24" height="24" viewBox="0 0 24 24" fill="none" xmlns="http://www.w3.org/2000/svg">
<path d="M8 6.81995V17.18C8 17.97 8.87 18.45 9.54 18.02L17.68 12.84C17.8225 12.7498 17.9399 12.625 18.0212 12.4773C18.1026 12.3295 18.1452 12.1636 18.1452 11.9949C18.1452 11.8263 18.1026 11.6604 18.0212 11.5126C17.9399 11.3649 17.8225 11.2401 17.68 11.1499L9.54 5.97995C9.38917 5.88239 9.2148 5.82736 9.0353 5.82064C8.85579 5.81393 8.6778 5.85579 8.52011 5.94181C8.36241 6.02782 8.23085 6.15481 8.13931 6.30936C8.04777 6.46392 7.99964 6.64032 8 6.81995Z" fill="white"/>
</svg>
